# xmcd
# Copyright (C) 1995-1998 Ti Kan
#
# Track frame offsets:
#       150
#       16946
#       31712
#
# Disc length: 737 seconds
#
# Revision: 0
# Processed by: cddbd v1.5.2PL0 Copyright (c) Steve Scherf et al.
# Submitted via: CD-Import v1.0
#
DISCID=1302df03
DTITLE=Kljh - 
DYEAR=1900
DGENRE=
TTITLE0=Sunshine Of Your Love
TTITLE1=Sunshine Of Your Love
TTITLE2=Sunshine Of Your Love
EXTD=
EXTT0=
EXTT1=
EXTT2=
PLAYORDER=
